<mxfile host="app.diagrams.net" modified="2024-06-02T22:35:58.302Z" agent="Mozilla/5.0 (Windows NT 10.0; Win64; x64) AppleWebKit/537.36 (KHTML, like Gecko) Chrome/124.0.0.0 Safari/537.36 OPR/110.0.0.0" version="24.4.13" etag="CtytCQt7QxqpZuSu95Sk" type="github">
  <diagram name="PÃ¡gina-1" id="aOJUA8V2lC8bgigv9EU_">
    <mxGraphModel>
      <root>
        <mxCell id="0" />
        <mxCell id="1" parent="0" />
      </root>
    </mxGraphModel>
  </diagram>
</mxfile>
